<?xml version="1.0" encoding="UTF-8"?>
<!DOCTYPE svg PUBLIC "-//W3C//DTD SVG 1.1//EN" "http://www.w3.org/Graphics/SVG/1.1/DTD/svg11.dtd">
<!-- Creator: CorelDRAW X7 -->
<svg xmlns="http://www.w3.org/2000/svg" xml:space="preserve" width="5.7436mm" height="4.7042mm" version="1.1" style="shape-rendering:geometricPrecision; text-rendering:geometricPrecision; image-rendering:optimizeQuality; fill-rule:evenodd; clip-rule:evenodd"
viewBox="0 0 51 42"
 xmlns:xlink="http://www.w3.org/1999/xlink">
 <defs>
  <style type="text/css">
   <![CDATA[
    .str0 {stroke:#373435;stroke-width:2.21489}
    .fil0 {fill:#FEFEFE}
   ]]>
  </style>
 </defs>
 <g id="Capa_x0020_1">
  <metadata id="CorelCorpID_0Corel-Layer"/>
  <path class="fil0 str0" d="M1 12l0 2c0,0 0,2 1,2 0,1 0,2 0,3 2,3 5,6 7,9l4 4c1,0 1,0 1,0l2 2c2,1 4,3 6,4 0,0 3,3 3,3 1,0 7,-5 8,-6 1,0 2,-1 3,-2 1,-1 1,-1 1,-1l3 -2c1,-2 3,-4 4,-5l2 -2c1,-2 3,-5 4,-8 0,0 0,-1 0,-1l0 -2c0,0 0,-1 -1,-2 0,-1 0,-2 -1,-2 0,-1 -1,-3 -2,-3 -5,-5 -11,-5 -16,-1 -1,1 -3,3 -4,4 0,1 0,2 -1,2 0,-1 -1,-4 -4,-6 -5,-4 -12,-4 -16,1 -1,1 -3,3 -3,5 0,0 -1,0 -1,1l0 1c0,0 0,0 0,0z"/>
 </g>
</svg>
