<?xml version="1.0" encoding="UTF-8"?>
<!DOCTYPE svg PUBLIC "-//W3C//DTD SVG 1.1//EN" "http://www.w3.org/Graphics/SVG/1.1/DTD/svg11.dtd">
<!-- Creator: CorelDRAW X7 -->
<svg xmlns="http://www.w3.org/2000/svg" xml:space="preserve" width="3.9343mm" height="5.2407mm" version="1.1" style="shape-rendering:geometricPrecision; text-rendering:geometricPrecision; image-rendering:optimizeQuality; fill-rule:evenodd; clip-rule:evenodd"
viewBox="0 0 25 33"
 xmlns:xlink="http://www.w3.org/1999/xlink">
 <defs>
  <style type="text/css">
   <![CDATA[
    .fil1 {fill:#262931}
    .fil2 {fill:#96999D}
    .fil0 {fill:#FDFDFD}
   ]]>
  </style>
 </defs>
 <g id="Capa_x0020_1">
  <metadata id="CorelCorpID_0Corel-Layer"/>
  <g id="_433229256">
   <path class="fil0" d="M9 25c0,0 -1,0 2,0 1,0 10,0 11,0 0,1 0,1 -3,1l-9 0c-1,0 -1,0 -1,-1zm0 -4c0,-1 1,-1 3,-1 1,0 2,0 3,0l6 0c1,0 0,0 1,1 -1,1 0,0 -3,0l-9 0c-2,0 -1,0 -1,0zm-4 1c0,-1 0,-1 0,-2 0,0 0,0 0,0l1 1c0,-1 1,-2 2,-2 0,1 -1,3 -3,3zm0 -5c0,0 -1,-1 0,-2 0,0 0,0 1,1l0 0c1,-1 0,-2 2,-1 0,1 -2,2 -3,2zm0 -4c0,-1 -1,-2 0,-2 1,-1 0,0 1,0 0,0 1,-1 2,-1 0,0 0,0 0,1 -1,1 -2,1 -3,2zm12 -2l4 0c1,0 0,0 1,0 -1,1 0,1 -1,1l-5 0 -3 4c1,0 8,-1 9,0 0,1 -2,1 -3,1l-7 0c0,0 -1,1 -1,1 -4,2 -3,-2 -2,-3l2 -3c0,0 -1,0 -1,0 -1,0 -1,0 -1,-1 0,0 0,0 1,0 3,0 2,0 5,-3 0,-1 1,-2 2,-3l-11 0c-3,0 -3,0 -3,6l0 17c0,4 -1,4 9,4l10 0c1,-1 1,-3 1,-5l0 -21c-1,1 0,2 -2,1 0,-1 2,-3 2,-4 0,0 0,0 -1,1l-5 7z"/>
   <path class="fil1" d="M22 4c1,-1 1,-1 1,-1 0,1 -2,3 -2,4 2,1 1,0 2,-1l0 21c0,2 0,4 -1,5l-10 0c-10,0 -9,0 -9,-4l0 -17c0,-6 0,-6 3,-6l11 0c-1,1 -2,2 -2,3 -3,3 -2,3 -5,3 -1,0 -1,0 -1,0 0,1 0,1 1,1 0,0 1,0 1,0l-2 3c-1,1 -2,5 2,3 0,0 1,-1 1,-1l7 0c1,0 3,0 3,-1 -1,-1 -8,0 -9,0l3 -4 5 0c1,0 0,0 1,-1 -1,0 0,0 -1,0l-4 0 5 -7zm-13 14c0,-2 0,-2 1,-3l5 -6c0,0 0,0 1,-1l4 -5c0,0 0,0 1,-1 1,0 1,0 1,1l-3 4c0,0 -1,0 -1,1l-7 8c-1,1 0,1 -2,2zm14 -16c-1,-1 -1,-1 -1,-1 1,0 1,0 1,1zm-23 10l2 0 0 1 -2 0 0 1c0,0 0,0 0,0l2 0 0 2c0,0 0,0 -1,0 0,0 0,0 0,0 -2,1 -1,1 -1,1l2 0c0,1 0,2 0,2l-2 0c0,1 0,0 1,1l1 0 0 2c-1,0 -1,0 -2,1 1,0 1,0 2,0l0 2c-2,0 -2,0 -2,1l2 0 0 2c0,0 -1,0 -1,0 -1,0 -1,0 -1,0 0,1 0,1 1,1 0,0 1,0 1,0 0,2 0,4 3,4l13 0c2,0 5,0 6,-2 0,-1 0,-25 0,-26 0,-1 1,-1 0,-3 0,-3 -3,-2 -3,-1 -1,1 -2,2 -3,3 -3,0 -7,0 -10,0 -6,0 -6,0 -6,4 0,0 -1,0 -1,0 -1,0 -1,0 -1,0 1,1 1,1 2,1l0 2 -2 0c0,0 0,0 0,1z"/>
   <path class="fil0" d="M9 18c2,-1 1,-1 2,-2l7 -8c0,-1 1,-1 1,-1l3 -4c0,-1 0,-1 -1,-1 -1,1 -1,1 -1,1l-4 5c-1,1 -1,1 -1,1l-5 6c-1,1 -1,1 -1,3z"/>
   <path class="fil1" d="M11 25c-3,0 -2,0 -2,0 0,1 0,1 1,1l9 0c3,0 3,0 3,-1 -1,0 -10,0 -11,0z"/>
   <path class="fil1" d="M12 20c-2,0 -3,0 -3,1 0,0 -1,0 1,0l9 0c3,0 2,1 3,0 -1,-1 0,-1 -1,-1l-6 0c-1,0 -2,0 -3,0z"/>
   <path class="fil1" d="M5 13c1,-1 2,-1 3,-2 0,-1 0,-1 0,-1 -1,0 -2,1 -2,1 -1,0 0,-1 -1,0 -1,0 0,1 0,2z"/>
   <path class="fil1" d="M5 17c1,0 3,-1 3,-2 -2,-1 -1,0 -2,1l0 0c-1,-1 -1,-1 -1,-1 -1,1 0,2 0,2z"/>
   <path class="fil1" d="M5 22c2,0 3,-2 3,-3 -1,0 -2,1 -2,2l-1 -1c0,0 0,0 0,0 0,1 0,1 0,2z"/>
   <path class="fil2" d="M1 20c-1,-1 -1,0 -1,-1l2 0c0,0 0,-1 0,-2l-2 0c1,0 1,0 2,0l0 2c-1,0 -2,0 -2,1 0,0 0,0 1,0z"/>
   <path class="fil2" d="M0 13l2 0 0 -1 -2 0 1 0c0,0 1,0 1,0l0 1 -2 0z"/>
   <path class="fil0" d="M23 2c0,-1 0,-1 -1,-1 0,0 0,0 1,1z"/>
  </g>
 </g>
</svg>
