<?xml version="1.0" encoding="UTF-8"?>
<!DOCTYPE svg PUBLIC "-//W3C//DTD SVG 1.1//EN" "http://www.w3.org/Graphics/SVG/1.1/DTD/svg11.dtd">
<!-- Creator: CorelDRAW X7 -->
<svg xmlns="http://www.w3.org/2000/svg" xml:space="preserve" width="5.6264mm" height="5.3992mm" version="1.1" style="shape-rendering:geometricPrecision; text-rendering:geometricPrecision; image-rendering:optimizeQuality; fill-rule:evenodd; clip-rule:evenodd"
viewBox="0 0 49 47"
 xmlns:xlink="http://www.w3.org/1999/xlink">
 <defs>
  <style type="text/css">
   <![CDATA[
    .fil0 {fill:#303030}
    .fil1 {fill:#FEFEFE}
   ]]>
  </style>
 </defs>
 <g id="Capa_x0020_1">
  <metadata id="CorelCorpID_0Corel-Layer"/>
  <g id="_433243728">
   <path class="fil0" d="M24 43c-1,0 -4,0 -6,0 -8,0 -6,1 -6,-12 0,-2 -1,-6 0,-7l9 -9c1,-1 3,-3 5,-2 1,0 9,9 10,10 2,2 1,1 1,4 0,2 0,4 0,7 0,7 1,9 -3,9 0,-6 2,-12 -5,-12 -2,0 -4,1 -4,4 -1,2 0,6 -1,8zm-24 -20l0 2c1,3 3,5 6,4 1,0 1,-1 2,-1 0,3 0,6 0,9 0,3 -1,6 1,8 2,2 3,2 6,2l18 0c4,0 5,0 7,-2 2,-2 1,-5 1,-8 0,-3 0,-6 0,-9 3,1 5,3 8,-3l0 -2c-2,-2 -1,-2 -4,-4 -5,-5 -10,-11 -15,-16 -1,-1 -3,-3 -5,-3 -4,-1 -5,4 -9,6 -1,-1 -1,-1 -3,-1 -1,0 -3,0 -4,0 -1,2 0,6 -1,9 0,1 -1,1 -2,2 0,1 -1,2 -2,2 -3,3 -2,2 -4,5z"/>
   <path class="fil1" d="M24 43c1,-2 0,-6 1,-8 0,-3 2,-4 4,-4 7,0 5,6 5,12 4,0 3,-2 3,-9 0,-3 0,-5 0,-7 0,-3 1,-2 -1,-4 -1,-1 -9,-10 -10,-10 -2,-1 -4,1 -5,2l-9 9c-1,1 0,5 0,7 0,13 -2,12 6,12 2,0 5,0 6,0z"/>
  </g>
 </g>
</svg>
