<?xml version="1.0" encoding="UTF-8"?>
<!DOCTYPE svg PUBLIC "-//W3C//DTD SVG 1.1//EN" "http://www.w3.org/Graphics/SVG/1.1/DTD/svg11.dtd">
<!-- Creator: CorelDRAW X7 -->
<svg xmlns="http://www.w3.org/2000/svg" xml:space="preserve" width="6.2144mm" height="6.0366mm" version="1.1" style="shape-rendering:geometricPrecision; text-rendering:geometricPrecision; image-rendering:optimizeQuality; fill-rule:evenodd; clip-rule:evenodd"
viewBox="0 0 71 69"
 xmlns:xlink="http://www.w3.org/1999/xlink">
 <defs>
  <style type="text/css">
   <![CDATA[
    .fil0 {fill:#FEFEFE}
   ]]>
  </style>
 </defs>
 <g id="Capa_x0020_1">
  <metadata id="CorelCorpID_0Corel-Layer"/>
  <path class="fil0" d="M69 64c0,1 0,0 0,1 0,1 -1,1 -1,2 -1,0 -4,0 -5,0 -3,0 -6,0 -9,0 -3,0 -50,0 -51,0 -1,-1 0,-5 0,-5l3 -41c5,-1 43,0 44,-1 1,0 1,0 1,-1 0,-1 0,-1 -1,-1 -1,-1 -39,0 -44,0l0 -2c2,-1 25,-1 29,-1 3,0 29,0 30,1 1,1 1,9 1,11l2 25c0,3 1,10 1,12zm-39 -52c0,0 0,0 0,0 0,0 0,0 0,0 0,0 0,0 1,0 0,-1 0,-1 0,-1 0,0 0,0 0,0 0,0 0,0 0,0 0,0 0,0 1,0 -1,0 -1,0 0,0 0,-1 0,-1 0,-1 0,0 0,0 0,0 0,0 0,0 0,0 0,0 0,0 1,0l0 0 0 -1c0,0 0,0 0,0 0,0 0,0 1,0 -1,0 -1,0 0,0 0,-1 0,-1 0,-1 0,0 0,0 0,0 0,0 0,0 0,0 0,0 0,0 1,0 0,-1 0,-1 0,0 0,-1 0,-1 0,-1 0,0 0,0 0,0l1 0 0 0 0 -1c0,0 0,0 0,0 0,0 0,0 0,0 0,0 0,0 1,0 0,-1 -1,-1 0,0 0,-1 0,-1 0,-1 0,0 0,0 0,0 0,0 0,0 0,0 0,0 0,0 1,0 0,-1 0,-1 0,-1 0,0 0,0 0,0 0,0 0,0 0,0l1 0 0 0c0,-1 0,-1 0,-1 0,0 0,0 0,0 0,0 0,0 0,0 0,0 0,0 1,0l0 0c0,0 0,-1 0,0 1,0 1,0 1,0 0,0 0,0 0,0 0,0 0,0 0,1 0,0 0,-1 0,0 1,0 0,0 0,0 1,0 1,0 1,0 0,0 0,0 0,0 0,0 0,0 0,1 0,0 0,0 0,0 1,0 1,0 1,0 0,0 0,0 0,0 0,0 0,0 0,1 0,-1 0,-1 0,0 1,0 0,0 0,0 1,0 1,0 1,0 0,0 0,0 0,0 0,0 0,0 0,1 0,0 0,0 0,0 1,0 1,0 1,0 0,0 0,0 0,0 0,0 0,0 0,0 0,0 0,0 0,1 1,0 1,0 0,0 1,0 1,0 1,0 0,0 0,0 0,0 0,0 0,0 0,1 0,0 0,-1 0,0 1,0 1,0 1,0 0,0 0,0 0,0 0,0 0,0 0,0 0,0 0,0 0,1 1,0 0,0 0,0 1,0 1,0 1,0 0,0 0,0 0,0 0,0 0,0 0,1 0,0 0,-1 0,0 1,0 1,0 1,0 0,0 0,0 0,0 0,0 0,0 0,0 0,0 0,0 0,1 1,0 0,0 0,0 1,0 1,0 1,0 0,0 0,0 0,0 0,1 0,0 0,1l-20 0 0 -1zm-4 1c0,0 -1,0 -2,0 -2,0 -4,0 -6,0l1 0 0 -1c0,0 0,0 0,0 0,0 0,0 0,0 0,0 0,0 0,0 0,-1 0,-1 1,-1 0,0 -1,0 0,0 0,0 0,0 0,0 0,0 0,0 0,0 0,-1 0,0 0,0 0,-1 0,-1 1,-1 0,0 0,0 0,0l0 0 0 0 1 -1c0,0 -1,0 0,0 0,0 0,0 0,0 0,0 0,0 0,0 0,-1 0,-1 0,0 0,-1 0,-1 1,-1 0,0 0,0 0,0 0,0 0,0 0,0 0,0 0,0 0,0 0,-1 0,-1 1,-1 0,0 -1,0 0,0l0 0 0 0 0 0c0,-1 0,-1 1,-1 0,0 0,0 0,0 0,0 0,0 0,0 0,0 1,-1 1,0 0,1 3,2 3,4 0,0 -1,1 -1,1 -1,1 -1,1 -2,2zm-11 0c-3,0 -6,0 -8,0 -2,0 -2,1 -3,1 -1,2 -1,2 -1,4 -1,15 -2,30 -3,45 -1,8 4,6 10,6l57 0c1,0 2,0 3,-1 1,-1 1,-1 1,-3 0,-2 -1,-12 -1,-15 0,-10 -1,-20 -2,-30 0,-3 0,-5 -2,-6 -1,-2 -5,-1 -7,-1 -5,0 -5,0 -7,-2 -1,-1 -2,-2 -4,-4 -1,-1 -2,-2 -4,-4 -1,-1 -3,-3 -5,-3 -1,0 -6,6 -8,8l-4 -4c-2,-2 -4,1 -7,3 0,1 -1,1 -1,2 -2,1 -3,3 -4,4z"/>
 </g>
</svg>
