<?xml version="1.0" encoding="UTF-8"?>
<!DOCTYPE svg PUBLIC "-//W3C//DTD SVG 1.1//EN" "http://www.w3.org/Graphics/SVG/1.1/DTD/svg11.dtd">
<!-- Creator: CorelDRAW X7 -->
<svg xmlns="http://www.w3.org/2000/svg" xml:space="preserve" width="7.2427mm" height="5.2097mm" version="1.1" style="shape-rendering:geometricPrecision; text-rendering:geometricPrecision; image-rendering:optimizeQuality; fill-rule:evenodd; clip-rule:evenodd"
viewBox="0 0 79 57"
 xmlns:xlink="http://www.w3.org/1999/xlink">
 <defs>
  <style type="text/css">
   <![CDATA[
    .fil1 {fill:#383838}
    .fil2 {fill:#9C9C9C}
    .fil0 {fill:#FEFEFE}
   ]]>
  </style>
 </defs>
 <g id="Capa_x0020_1">
  <metadata id="CorelCorpID_0Corel-Layer"/>
  <g id="_575946920">
   <path class="fil0" d="M23 40c0,-1 -1,-1 2,-1 0,-1 2,0 3,0 2,0 4,-1 5,1 0,1 2,1 -5,1 -2,0 -3,0 -5,-1zm-15 1c0,-3 -1,-2 6,-2 5,0 6,-1 8,1 -1,1 -1,1 -7,1 -2,0 -5,0 -7,0zm16 -8c2,-1 1,-1 4,-1 5,0 4,0 4,1 0,2 0,1 -1,1 -1,0 -3,0 -3,0 -4,0 -3,1 -4,-1zm-15 0c0,-1 0,-1 1,-1l11 0c0,3 1,2 -6,2 -9,0 -6,1 -6,-1zm0 -15c3,-2 9,-1 10,1 1,3 1,8 -1,9 -2,1 -8,2 -10,0 -1,-3 -1,-9 1,-10zm43 -11c9,-3 12,11 4,13 -10,3 -13,-11 -4,-13zm-20 7c-3,0 -6,0 -8,0l0 -3c2,0 13,0 15,1l0 1c-1,1 1,1 -2,1l-5 0zm-11 0c-3,0 -10,0 -12,0l0 -3 12 0 0 3zm-18 -10c-1,3 -1,15 -1,19 0,24 -5,21 21,21 7,0 15,0 22,0 -1,-5 -1,-6 0,-10l-8 0c-4,0 -2,1 -2,-1 0,-1 -1,-1 4,-1 3,0 5,0 7,0 0,-1 1,-1 1,-2 6,-8 12,-8 20,-7 0,-4 1,-17 -1,-20 -5,-1 -24,-1 -32,-1l-24 0c-4,0 -4,0 -7,2z"/>
   <path class="fil0" d="M64 42c-3,-2 -7,-1 -7,-5 -1,-3 1,-3 2,-4l2 -2c2,-2 -1,0 1,-1 2,1 -1,1 3,3 1,2 1,2 1,4 -5,0 0,-1 -4,-2 -1,-1 -3,0 -3,2 1,2 5,2 7,4 3,4 -3,7 -3,7 -2,2 1,1 -1,2 -3,-1 0,0 -2,-2 -1,-2 -3,-1 -3,-3 -1,-4 0,-2 0,-3 4,1 0,4 7,3l0 -3zm-18 -1c2,20 32,17 31,-2 -2,-20 -32,-18 -31,2z"/>
   <path class="fil1" d="M46 41c-1,-20 29,-22 31,-2 1,19 -29,22 -31,2zm-43 -37c3,-2 3,-2 7,-2l24 0c8,0 27,0 32,1 2,3 1,16 1,20 -8,-1 -14,-1 -20,7 0,1 -1,1 -1,2 -2,0 -4,0 -7,0 -5,0 -4,0 -4,1 0,2 -2,1 2,1l8 0c-1,4 -1,5 0,10 -7,0 -15,0 -22,0 -26,0 -21,3 -21,-21 0,-4 0,-16 1,-19zm66 20c0,-27 5,-24 -22,-24 -6,0 -42,-1 -45,1 -3,2 -2,17 -2,21 0,25 -2,24 11,24 8,0 29,0 34,0 2,3 3,4 5,6 1,2 4,4 7,4 13,4 24,-7 22,-20 -2,-8 -7,-10 -10,-12z"/>
   <path class="fil1" d="M64 42l0 3c-7,1 -3,-2 -7,-3 0,1 -1,-1 0,3 0,2 2,1 3,3 2,2 -1,1 2,2 2,-1 -1,0 1,-2 0,0 6,-3 3,-7 -2,-2 -6,-2 -7,-4 0,-2 2,-3 3,-2 4,1 -1,2 4,2 0,-2 0,-2 -1,-4 -4,-2 -1,-2 -3,-3 -2,1 1,-1 -1,1l-2 2c-1,1 -3,1 -2,4 0,4 4,3 7,5z"/>
   <path class="fil1" d="M58 15c-2,6 -11,3 -9,-4 2,-5 12,-2 9,4zm-6 -8c-9,2 -6,16 4,13 8,-2 5,-16 -4,-13z"/>
   <path class="fil0" d="M58 15c3,-6 -7,-9 -9,-4 -2,7 7,10 9,4z"/>
   <path class="fil1" d="M10 20c8,-2 8,0 7,7l-7 -1 0 -6zm-1 -2c-2,1 -2,7 -1,10 2,2 8,1 10,0 2,-1 2,-6 1,-9 -1,-2 -7,-3 -10,-1z"/>
   <path class="fil0" d="M10 26l7 1c1,-7 1,-9 -7,-7l0 6z"/>
   <path class="fil1" d="M14 39c-7,0 -6,-1 -6,2 2,0 5,0 7,0 6,0 6,0 7,-1 -2,-2 -3,-1 -8,-1z"/>
   <path class="fil1" d="M10 32c-1,0 -1,0 -1,1 0,2 -3,1 6,1 7,0 6,1 6,-2l-11 0z"/>
   <path class="fil1" d="M38 12c-1,0 -12,-1 -14,0 1,2 -2,1 8,1 7,0 6,1 7,-1 0,0 -1,0 -1,0z"/>
   <path class="fil1" d="M25 39c-3,0 -2,0 -2,1 2,1 3,1 5,1 7,0 5,0 5,-1 -1,-2 -3,-1 -5,-1 -1,0 -3,-1 -3,0z"/>
   <path class="fil1" d="M11 12c-3,0 -2,-1 -2,1 1,0 0,0 1,0l8 1c4,-1 2,0 3,-2 0,0 -1,0 -1,0l-9 0z"/>
   <path class="fil1" d="M28 32c-3,0 -2,0 -4,1 1,2 0,1 4,1 0,0 2,0 3,0 1,0 1,1 1,-1 0,-1 1,-1 -4,-1z"/>
   <path class="fil2" d="M24 12c2,-1 13,0 14,0 0,0 1,0 1,0 -1,2 0,1 -7,1 -10,0 -7,1 -8,-1zm0 2c2,0 5,0 8,0l5 0c3,0 1,0 2,-1l0 -1c-2,-1 -13,-1 -15,-1l0 3z"/>
   <path class="fil2" d="M9 13c0,-2 -1,-1 2,-1l9 0c0,0 1,0 1,0 -1,2 1,1 -3,2l-8 -1c-1,0 0,0 -1,0zm0 1c2,0 9,0 12,0l0 -3 -12 0 0 3z"/>
  </g>
 </g>
</svg>
