<?xml version="1.0" encoding="UTF-8"?>
<!DOCTYPE svg PUBLIC "-//W3C//DTD SVG 1.1//EN" "http://www.w3.org/Graphics/SVG/1.1/DTD/svg11.dtd">
<!-- Creator: CorelDRAW X7 -->
<svg xmlns="http://www.w3.org/2000/svg" xml:space="preserve" width="5.8064mm" height="6.3575mm" version="1.1" style="shape-rendering:geometricPrecision; text-rendering:geometricPrecision; image-rendering:optimizeQuality; fill-rule:evenodd; clip-rule:evenodd"
viewBox="0 0 2001 2190"
 xmlns:xlink="http://www.w3.org/1999/xlink">
 <defs>
  <style type="text/css">
   <![CDATA[
    .str0 {stroke:#FEFEFE;stroke-width:34.4553}
    .fil0 {fill:#FEFEFE}
   ]]>
  </style>
 </defs>
 <g id="Capa_x0020_1">
  <metadata id="CorelCorpID_0Corel-Layer"/>
  <g id="_570165256">
   <path class="fil0 str0" d="M380 656c154,-49 174,-122 507,-121 172,0 392,29 513,124 -76,165 -171,83 -199,74 -148,-46 -461,-45 -610,-2 -53,15 -84,47 -129,23 -56,-31 -55,-76 -82,-98zm-7 -25c0,-181 18,-273 113,-373 69,-73 198,-144 341,-157 20,-24 20,-43 60,-58 49,9 47,31 70,58 13,7 494,36 452,526 -245,-139 -646,-162 -924,-51 -43,18 -76,41 -112,55zm-27 41c23,20 15,4 29,33 13,14 21,26 36,41 19,18 25,18 47,39l28 8c27,-1 267,-114 630,-51 58,10 144,53 186,49l26 -7c12,-15 25,-22 38,-34 17,-16 27,-30 43,-45 14,-29 6,-13 28,-33 3,-228 -12,-331 -142,-451 -135,-126 -198,-107 -302,-143 -52,-18 -28,-58 -97,-61 -62,-2 -57,35 -91,55 -42,24 -167,12 -312,144 -135,124 -147,221 -147,456z"/>
   <path class="fil0 str0" d="M264 1673l-1 443 -218 3c8,-94 31,-190 70,-263 44,-84 90,-129 149,-183zm956 473l-3 -28 -951 0 25 0 0 -460c35,-46 125,-93 191,-109l0 348 735 3 1 -29 -707 0 -1 -333 110 -18 -1 -28c-338,33 -590,291 -601,654l1202 0z"/>
   <path class="fil0 str0" d="M649 1390c37,22 199,98 239,99 45,2 206,-75 247,-99 24,183 -44,289 -238,291 -197,3 -274,-101 -248,-291zm-30 102l1 28c5,110 138,187 267,188 134,2 271,-75 277,-188l0 -28c0,-174 -9,-95 54,-172 87,-108 67,-120 103,-217 17,-45 23,-23 52,-55 28,-31 60,-100 63,-149 4,-59 -16,-67 -17,-72 0,-3 -3,-3 -4,-5 -13,14 -6,5 -17,18 -11,13 -2,3 -11,16 28,11 14,-4 23,26 7,23 -29,143 -82,161l0 -44 -26 1c1,145 -46,245 -123,319 -41,38 -78,66 -136,88 -71,27 -111,57 -156,56l-161 -62c-153,-66 -246,-210 -244,-401l-27 0 2 43c-49,-14 -116,-159 -71,-192 -1,-3 -3,-6 -4,-8 -1,-2 -2,-6 -3,-8 -2,-2 -8,-14 -10,-16 -33,44 -27,104 1,162 55,115 71,63 92,122 25,67 18,91 59,155 109,171 99,32 98,234z"/>
   <path class="fil0 str0" d="M1219 2146l764 -1 0 -19 -680 0c-26,0 -77,9 -57,-8l0 -683 711 -1 26 -8 0 -9 -756 0c1,118 0,237 0,357 0,112 4,264 -8,372z"/>
   <path class="fil0 str0" d="M1246 2118c-20,17 31,8 57,8l680 0 0 -700 -26 8 -1 684 -710 0z"/>
   <path class="fil0 str0" d="M1216 1499l0 26 2 346 -1 29 0 218 3 28 -1 0c12,-108 8,-260 8,-372 0,-120 1,-239 0,-357l756 0 0 -11 -765 2 -2 91z"/>
   <path class="fil0 str0" d="M369 819c2,2 8,14 10,16 1,2 2,6 3,8 1,2 3,5 4,8 16,61 46,98 69,149l27 0 4 -207 -28 -8 -2 151c-39,-50 -74,-155 -81,-231 -14,-29 -6,-13 -29,-33l23 147z"/>
   <path class="fil0 str0" d="M1409 705c-7,71 -45,174 -82,222l1 -143 -26 7 0 209 26 -1c10,-25 18,-41 30,-64 19,-36 27,-41 29,-79 9,-13 0,-3 11,-16 11,-13 4,-4 17,-18l22 -150c-22,20 -14,4 -28,33z"/>
   <polygon class="fil0 str0" points="1164,1520 1216,1525 1216,1499 1164,1492 "/>
   <rect class="fil0 str0" x="1471" y="1534" width="257.381" height="42.2766"/>
  </g>
 </g>
</svg>
