<?xml version="1.0" encoding="UTF-8"?>
<!DOCTYPE svg PUBLIC "-//W3C//DTD SVG 1.1//EN" "http://www.w3.org/Graphics/SVG/1.1/DTD/svg11.dtd">
<!-- Creator: CorelDRAW X7 -->
<svg xmlns="http://www.w3.org/2000/svg" xml:space="preserve" width="5.7357mm" height="6.0939mm" version="1.1" style="shape-rendering:geometricPrecision; text-rendering:geometricPrecision; image-rendering:optimizeQuality; fill-rule:evenodd; clip-rule:evenodd"
viewBox="0 0 69 74"
 xmlns:xlink="http://www.w3.org/1999/xlink">
 <defs>
  <style type="text/css">
   <![CDATA[
    .fil0 {fill:#FEFEFE}
   ]]>
  </style>
 </defs>
 <g id="Capa_x0020_1">
  <metadata id="CorelCorpID_0Corel-Layer"/>
  <g id="_430803464">
   <g>
    <path class="fil0" d="M14 36c-1,0 -2,-1 -3,-2 -1,-1 -1,-2 -1,-4 0,-3 0,-6 0,-10 0,-1 0,-2 1,-3 1,-1 2,-2 4,-2l20 0c1,0 2,1 3,2 1,1 1,1 1,3 0,4 0,7 0,10 0,2 1,3 0,4 -2,2 -3,1 -4,2l0 2c2,0 5,-2 6,-3 0,-1 1,-2 1,-3 0,-1 0,-10 0,-12 0,-2 -1,-3 -2,-4 0,-1 0,-1 0,-1 -1,-1 -2,-1 -3,-2 -2,0 -5,0 -6,0 -4,0 -8,0 -12,0 -2,0 -5,0 -6,0 -3,1 -5,4 -5,7 0,2 0,4 0,6 0,2 -1,5 0,6 0,3 3,6 6,6l0 -2z"/>
    <path class="fil0" d="M16 17c-1,0 -2,0 -3,0 -2,1 -1,3 -1,5 0,2 -1,9 0,10 0,1 0,1 1,2 1,0 2,0 3,0l0 -17z"/>
    <path class="fil0" d="M34 34c1,0 2,0 3,0 0,-1 1,-1 1,-2 0,-1 0,-8 0,-10 0,-2 0,-4 -1,-5 -1,0 -2,0 -3,0l0 17z"/>
    <path class="fil0" d="M32 34c0,0 0,-16 0,-17l-3 0 0 17 3 0z"/>
    <polygon class="fil0" points="21,34 24,34 24,17 21,17 "/>
    <path class="fil0" d="M20 34c0,0 0,-16 0,-17l-3 0 0 17 3 0z"/>
    <polygon class="fil0" points="26,34 27,34 27,17 26,17 "/>
    <path class="fil0" d="M18 37c-1,1 -1,1 -1,1 -1,0 0,-3 0,-2 1,0 1,1 1,1zm-2 0c0,2 3,2 2,0 0,-1 0,-2 -1,-2 -1,1 -1,1 -1,2z"/>
    <path class="fil0" d="M20 38c0,-2 1,-3 1,-2 0,1 0,1 0,2 -1,0 -1,0 -1,0zm-1 -1c0,1 1,2 2,2 0,-1 1,-1 1,-2 -1,-2 -3,-2 -3,0z"/>
    <path class="fil0" d="M29 36c1,0 1,1 1,1 -1,0 -1,0 -1,-1 0,0 0,0 0,0zm-1 3c1,0 2,-1 2,-1 1,-1 1,-2 0,-3 -1,0 -2,1 -2,1 0,1 1,2 2,1 0,1 -1,1 -2,1l0 1z"/>
    <path class="fil0" d="M32 36c0,0 0,0 1,0 0,0 0,0 0,0l0 -1 -1 0 -1 2c1,0 2,0 2,1 0,0 -1,0 -2,0l0 0c1,1 2,1 2,0 1,-1 0,-2 -1,-2l0 0z"/>
    <path class="fil0" d="M26 36c1,0 0,1 -1,2 0,0 0,0 0,1l2 0 0 -1 -1 0c0,0 0,0 0,0l1 -1c0,0 0,-1 0,-1 0,-1 -1,-1 -2,0l0 0c0,0 1,0 1,0z"/>
    <path class="fil0" d="M22 36l1 0 0 3 1 0 0 -4c-1,0 -1,0 -2,1l0 0z"/>
    <path class="fil0" d="M32 34c0,0 0,0 0,0l0 -1c0,-3 0,-16 0,-16 0,0 -3,-1 -3,0l3 0c0,1 0,17 0,17z"/>
    <path class="fil0" d="M32 36c1,0 1,0 1,0 1,0 1,0 0,-1l0 1c0,0 0,0 0,0 -1,0 -1,0 -1,0z"/>
   </g>
   <path class="fil0" d="M47 43c-3,-1 -7,2 -6,6 0,2 1,3 2,4 3,3 7,8 10,11l3 3c1,1 1,2 3,3 4,1 8,-2 7,-6 0,-2 -2,-3 -3,-4l-12 -14c-1,-1 -1,-2 -4,-3zm-19 -40c-13,-1 -24,9 -25,20 -1,13 8,23 20,24 9,1 18,-3 22,-11 7,-14 -2,-31 -17,-33zm9 45c-1,0 -8,5 -19,2 -6,-2 -10,-6 -14,-10 -3,-5 -5,-12 -4,-19 2,-8 6,-13 12,-17 3,-3 9,-4 14,-4 9,0 17,6 21,13 2,2 3,6 3,9 1,3 1,7 0,10 -1,5 -3,5 -4,8 3,0 4,1 5,2l11 11c0,1 5,7 6,8 2,3 1,8 -1,10 -3,3 -8,4 -11,1 -2,-1 -5,-6 -7,-7l-3 -4c-4,-4 -8,-7 -9,-13z"/>
  </g>
 </g>
</svg>
