<?xml version="1.0" encoding="UTF-8"?>
<!DOCTYPE svg PUBLIC "-//W3C//DTD SVG 1.1//EN" "http://www.w3.org/Graphics/SVG/1.1/DTD/svg11.dtd">
<!-- Creator: CorelDRAW X7 -->
<svg xmlns="http://www.w3.org/2000/svg" xml:space="preserve" width="7.4989mm" height="6.9206mm" version="1.1" style="shape-rendering:geometricPrecision; text-rendering:geometricPrecision; image-rendering:optimizeQuality; fill-rule:evenodd; clip-rule:evenodd"
viewBox="0 0 108 99"
 xmlns:xlink="http://www.w3.org/1999/xlink">
 <defs>
  <style type="text/css">
   <![CDATA[
    .str0 {stroke:#FEFEFE;stroke-width:2.86815}
    .fil0 {fill:#FEFEFE}
   ]]>
  </style>
 </defs>
 <g id="Capa_x0020_1">
  <metadata id="CorelCorpID_0Corel-Layer"/>
  <path class="fil0 str0" d="M77 84c7,-4 11,6 6,9 -4,2 -10,-1 -9,-6 1,-4 1,-2 3,-3zm-45 7c-1,-12 13,-11 11,1 -5,3 -6,3 -11,-1zm5 -23c-3,-2 -4,-13 -5,-18 -2,-6 -4,-13 -5,-19l74 0 -13 37 -51 0zm-35 -65c1,4 6,2 14,2l19 74c-3,2 -6,3 -7,8 0,5 3,9 6,10 10,4 15,-5 12,-14l25 0c-2,8 0,15 9,15 8,-1 12,-10 7,-16 -5,-6 -38,-3 -48,-3l-2 -7 52 0c3,-1 16,-41 17,-45l-80 0 -6 -25 -15 -1c-6,1 -2,1 -3,2z"/>
 </g>
</svg>
